<svg width="24" height="24" viewBox="0 0 24 24" fill="none" xmlns="http://www.w3.org/2000/svg">
<path d="M10.1 21H13.9M5.35001 8.65C5.35001 6.88631 6.05063 5.19486 7.29775 3.94774C8.54486 2.70062 10.2363 2 12 2C13.7637 2 15.4552 2.70062 16.7023 3.94774C17.9494 5.19486 18.65 6.88631 18.65 8.65C18.6506 9.72072 18.3917 10.7756 17.8953 11.7243C17.3989 12.6731 16.68 13.4873 15.8 14.0973L15.2851 16.535C15.2169 16.9843 14.99 17.3943 14.6454 17.6906C14.3008 17.9869 13.8614 18.1499 13.407 18.15H10.5931C10.1386 18.1499 9.69921 17.9869 9.35463 17.6906C9.01004 17.3943 8.78308 16.9843 8.71491 16.535L8.20001 14.1077C7.31974 13.4956 6.60075 12.6794 6.10445 11.729C5.60815 10.7786 5.3493 9.72219 5.35001 8.65Z" stroke="#001A72" stroke-width="1.5" stroke-linecap="round" stroke-linejoin="round"/>
<path d="M8.20001 14.35H15.8" stroke="#001A72" stroke-width="1.5" stroke-linecap="round" stroke-linejoin="round"/>
</svg>
