<svg width="24" height="24" viewBox="0 0 24 24" fill="none" xmlns="http://www.w3.org/2000/svg">
<path fill-rule="evenodd" clip-rule="evenodd" d="M13.25 4C13.25 3.58578 13.5858 3.25 14 3.25L19.9999 3.25001C20.4141 3.25001 20.7499 3.58579 20.7499 4L20.75 10C20.75 10.4142 20.4143 10.75 20 10.75C19.5858 10.75 19.25 10.4142 19.25 10L19.25 5.81065L10.5303 14.5303C10.2374 14.8232 9.7625 14.8232 9.46961 14.5304C9.17672 14.2375 9.17672 13.7626 9.46961 13.4697L18.1893 4.75001L14 4.75C13.5858 4.75 13.25 4.41421 13.25 4ZM3.25 4.00001C3.25 3.5858 3.58579 3.25001 4 3.25001H10C10.4142 3.25001 10.75 3.5858 10.75 4.00001C10.75 4.41423 10.4142 4.75001 10 4.75001H4.75V19.25H19.25V14C19.25 13.5858 19.5858 13.25 20 13.25C20.4142 13.25 20.75 13.5858 20.75 14V20C20.75 20.4142 20.4142 20.75 20 20.75H4C3.58579 20.75 3.25 20.4142 3.25 20V4.00001Z" fill="#001A72"/>
</svg>
