<svg width="24" height="24" viewBox="0 0 24 24" fill="none" xmlns="http://www.w3.org/2000/svg">
<path fill-rule="evenodd" clip-rule="evenodd" d="M11.3961 18.6613C11.1522 18.5307 11 18.2766 11 18L11 15.1246L5.13587 18.6431C4.90417 18.7821 4.61561 18.7858 4.38048 18.6526C4.14534 18.5195 4 18.2702 4 18L4 6C4 5.72979 4.14534 5.48048 4.38048 5.34735C4.61561 5.21422 4.90418 5.21786 5.13587 5.35688L11 8.87536L11 6C11 5.7234 11.1522 5.46926 11.3961 5.33874C11.64 5.20823 11.9359 5.22253 12.166 5.37596L21.166 11.376C21.3747 11.5151 21.5 11.7492 21.5 12C21.5 12.2508 21.3747 12.4849 21.166 12.624L12.166 18.624C11.9359 18.7775 11.64 18.7918 11.3961 18.6613ZM12.5 10.2137C12.5002 10.205 12.5002 10.1964 12.5 10.1877L12.5 7.40139L19.3979 12L12.5 16.5986L12.5 13.8123C12.5002 13.8036 12.5002 13.795 12.5 13.7863L12.5 10.2137ZM11 10.6246L5.5 7.32464L5.5 16.6754L11 13.3754L11 10.6246Z" fill="#001A72"/>
</svg>
