<svg width="24" height="24" viewBox="0 0 24 24" fill="none" xmlns="http://www.w3.org/2000/svg">
<path fill-rule="evenodd" clip-rule="evenodd" d="M12 3.75C7.44365 3.75 3.75 7.44365 3.75 12V13.25H6C7.51878 13.25 8.75 14.4812 8.75 16V19C8.75 20.5188 7.51878 21.75 6 21.75H3C2.58579 21.75 2.25 21.4142 2.25 21V12C2.25 6.61522 6.61522 2.25 12 2.25C17.3848 2.25 21.75 6.61522 21.75 12V21C21.75 21.4142 21.4142 21.75 21 21.75H18C16.4812 21.75 15.25 20.5188 15.25 19V16C15.25 14.4812 16.4812 13.25 18 13.25H20.25V12C20.25 7.44365 16.5563 3.75 12 3.75ZM20.25 14.75H18C17.3096 14.75 16.75 15.3096 16.75 16V19C16.75 19.6904 17.3096 20.25 18 20.25H20.25V14.75ZM3.75 14.75V20.25H6C6.69036 20.25 7.25 19.6904 7.25 19V16C7.25 15.3096 6.69036 14.75 6 14.75H3.75Z" fill="#001A72"/>
</svg>
