<svg width="24" height="24" viewBox="0 0 24 24" fill="none" xmlns="http://www.w3.org/2000/svg">
<path fill-rule="evenodd" clip-rule="evenodd" d="M12 2.25C12.1989 2.25 12.3897 2.32902 12.5303 2.46967L19.5303 9.46967C19.671 9.61032 19.75 9.80109 19.75 10L19.75 20C19.75 20.1989 19.671 20.3897 19.5303 20.5303C19.3897 20.671 19.1989 20.75 19 20.75H5C4.58579 20.75 4.25 20.4142 4.25 20L4.25 10C4.25 9.80109 4.32902 9.61032 4.46967 9.46967L11.4697 2.46967C11.6103 2.32902 11.8011 2.25 12 2.25ZM5.75 10.3107L5.75 19.25H18.25L18.25 10.3107L12 4.06066L5.75 10.3107Z" fill="#001A72"/>
</svg>
