<svg width="24" height="24" viewBox="0 0 24 24" fill="none" xmlns="http://www.w3.org/2000/svg">
<path fill-rule="evenodd" clip-rule="evenodd" d="M3.75115 4.76157C3.75065 4.76275 3.75 4.76462 3.75 4.76856V13.7178L7.30032 10.1675C7.44114 10.0251 7.60873 9.912 7.79345 9.83466C7.97921 9.75688 8.17857 9.71683 8.37995 9.71683C8.58133 9.71683 8.78069 9.75688 8.96645 9.83466C9.15117 9.912 9.31876 10.0251 9.45958 10.1675L13.7467 14.4546C13.7484 14.4563 13.7505 14.4578 13.7527 14.4587C13.755 14.4597 13.7574 14.4601 13.7599 14.4601C13.7624 14.4601 13.7648 14.4597 13.7671 14.4587C13.7693 14.4578 13.7714 14.4564 13.7731 14.4546L13.7772 14.4505L15.7545 12.4732C15.8953 12.3308 16.0629 12.2177 16.2477 12.1403C16.4334 12.0626 16.6328 12.0225 16.8342 12.0225C17.0355 12.0225 17.2349 12.0626 17.4207 12.1403C17.6054 12.2177 17.773 12.3308 17.9138 12.4732L17.9161 12.4755L20.6955 15.2549V4.76856C20.6955 4.76462 20.6949 4.76275 20.6944 4.76157C20.6937 4.75989 20.6923 4.75766 20.6901 4.75544C20.6879 4.75321 20.6857 4.75186 20.684 4.75115C20.6828 4.75065 20.6809 4.75 20.677 4.75H3.76856C3.76462 4.75 3.76275 4.75065 3.76157 4.75115C3.75989 4.75186 3.75766 4.75321 3.75544 4.75544C3.75321 4.75766 3.75186 4.75989 3.75115 4.76157ZM8.36269 11.2265L3.75 15.8391V18.6027C3.75 18.6067 3.75065 18.6085 3.75115 18.6097C3.75186 18.6114 3.75321 18.6136 3.75544 18.6158C3.75766 18.6181 3.75989 18.6194 3.76157 18.6201C3.76275 18.6206 3.76462 18.6213 3.76856 18.6213H20.677C20.6809 18.6213 20.6828 18.6206 20.684 18.6201C20.6849 18.6197 20.686 18.6191 20.6872 18.6183C20.6881 18.6176 20.6891 18.6168 20.6901 18.6158C20.6915 18.6145 20.6925 18.6131 20.6933 18.6118C20.6938 18.6111 20.6941 18.6103 20.6944 18.6097C20.6949 18.6085 20.6955 18.6067 20.6955 18.6027V17.3762L16.8474 13.5281C16.8465 13.5272 16.8455 13.5263 16.8444 13.5256C16.8434 13.525 16.8424 13.5244 16.8413 13.524C16.8391 13.523 16.8366 13.5225 16.8342 13.5225C16.8317 13.5225 16.8293 13.523 16.827 13.524C16.8247 13.5249 16.8227 13.5263 16.8209 13.5281L16.8169 13.5321L14.8396 15.5094C14.6987 15.6518 14.5311 15.765 14.3464 15.8423C14.1606 15.9201 13.9613 15.9601 13.7599 15.9601C13.5585 15.9601 13.3592 15.9201 13.1734 15.8423C12.9887 15.765 12.8211 15.6518 12.6802 15.5094L8.39316 11.2224C8.39143 11.2206 8.38939 11.2192 8.38712 11.2183C8.38485 11.2173 8.38241 11.2168 8.37995 11.2168C8.37749 11.2168 8.37505 11.2173 8.37278 11.2183C8.37051 11.2192 8.36845 11.2206 8.36672 11.2224L8.36269 11.2265ZM2.25 4.76856V15.5285V18.6027C2.25 19.4414 2.92988 20.1213 3.76856 20.1213H20.677C21.5157 20.1213 22.1955 19.4414 22.1955 18.6027V17.0656V4.76856C22.1955 3.92988 21.5157 3.25 20.677 3.25H3.76856C2.92988 3.25 2.25 3.92988 2.25 4.76856ZM16.0656 8.99567C16.0656 9.63237 15.5494 10.1485 14.9127 10.1485C14.276 10.1485 13.7599 9.63237 13.7599 8.99567C13.7599 8.35897 14.276 7.84282 14.9127 7.84282C15.5494 7.84282 16.0656 8.35897 16.0656 8.99567Z" fill="#001A72"/>
</svg>
