<svg width="24" height="24" viewBox="0 0 24 24" fill="none" xmlns="http://www.w3.org/2000/svg">
<path fill-rule="evenodd" clip-rule="evenodd" d="M6.693 4.75C6.58879 4.75 6.49551 4.81464 6.45892 4.91222L4.08225 11.25H8.5C8.78408 11.25 9.04378 11.4105 9.17082 11.6646L10.4635 14.25H13.5986L15.376 11.584C15.5151 11.3753 15.7492 11.25 16 11.25H19.9177L17.5411 4.91222C17.5045 4.81464 17.4112 4.75 17.307 4.75H6.693ZM20.25 12.75H16.4014L14.624 15.416C14.4849 15.6247 14.2508 15.75 14 15.75H10C9.71592 15.75 9.45622 15.5895 9.32918 15.3354L8.03647 12.75H3.75V18C3.75 18.6904 4.30964 19.25 5 19.25H19C19.6904 19.25 20.25 18.6904 20.25 18V12.75ZM5.05442 4.38553C5.31056 3.7025 5.96352 3.25 6.693 3.25H17.307C18.0365 3.25 18.6894 3.7025 18.9456 4.38553L21.7022 11.7367C21.7338 11.8209 21.75 11.9101 21.75 12V18C21.75 19.5188 20.5188 20.75 19 20.75H5C3.48122 20.75 2.25 19.5188 2.25 18V12C2.25 11.9101 2.26618 11.8209 2.29775 11.7367L5.05442 4.38553Z" fill="#001A72"/>
</svg>
