<svg width="24" height="24" viewBox="0 0 24 24" fill="none" xmlns="http://www.w3.org/2000/svg">
<path fill-rule="evenodd" clip-rule="evenodd" d="M2.76256 4.76256C3.07843 4.4467 3.51696 4.25 4 4.25H20C20.483 4.25 20.9216 4.4467 21.2374 4.76256C21.5533 5.07843 21.75 5.51696 21.75 6V18C21.75 18.9665 20.9665 19.75 20 19.75H4C3.0335 19.75 2.25 18.9665 2.25 18V6C2.25 5.51696 2.4467 5.07843 2.76256 4.76256ZM4.81067 5.75L11.1161 12.0554L10.6211 12.5504L11.1161 12.0554C11.6043 12.5436 12.3957 12.5436 12.8839 12.0554L13.4142 12.5857L12.8839 12.0554L19.1893 5.75H4.81067ZM20.25 6.81065L13.9445 13.1161C12.8706 14.19 11.1294 14.19 10.0555 13.1161L10.5858 12.5857L10.0555 13.1161L3.75 6.81065V18C3.75 18.1381 3.86193 18.25 4 18.25H20C20.1381 18.25 20.25 18.1381 20.25 18V6.81065Z" fill="#001A72"/>
</svg>
