<svg width="24" height="24" viewBox="0 0 24 24" fill="none" xmlns="http://www.w3.org/2000/svg">
<path fill-rule="evenodd" clip-rule="evenodd" d="M10.3119 2.70165C10.4336 2.42087 10.7138 2.24222 11.0197 2.25026C16.4073 2.39187 20.75 6.68571 20.75 12C20.75 17.3776 16.5411 21.75 11 21.75C7.54799 21.75 4.193 20.0791 2.38048 17.4227C2.20842 17.1706 2.20636 16.8393 2.37528 16.585C2.54419 16.3307 2.85037 16.2042 3.14951 16.2651C6.76047 16.9996 9.88152 15.1399 11.463 12.3917C13.0422 9.64763 13.0298 6.12418 10.4662 3.52685C10.2512 3.30903 10.1902 2.98244 10.3119 2.70165ZM12.7348 3.97295C14.6008 6.90245 14.3371 10.4049 12.7631 13.1399C11.1971 15.8611 8.29336 17.8987 4.80779 17.9272C6.4034 19.362 8.66009 20.25 11 20.25C15.6966 20.25 19.25 16.5653 19.25 12C19.25 8.12072 16.4876 4.84328 12.7348 3.97295Z" fill="#001A72"/>
</svg>
