<svg width="24" height="24" viewBox="0 0 24 24" fill="none" xmlns="http://www.w3.org/2000/svg">
<path fill-rule="evenodd" clip-rule="evenodd" d="M20.4552 2.40397C20.641 2.54586 20.75 2.76625 20.75 3V16.5C20.75 18.2949 19.2949 19.75 17.5 19.75C15.7051 19.75 14.25 18.2949 14.25 16.5C14.25 14.7051 15.7051 13.25 17.5 13.25C18.1443 13.25 18.7449 13.4375 19.25 13.7609V3.98194L9.75 6.57285V17.5C9.75 19.2949 8.29493 20.75 6.5 20.75C4.70507 20.75 3.25 19.2949 3.25 17.5C3.25 15.7051 4.70507 14.25 6.5 14.25C7.14432 14.25 7.74485 14.4375 8.25 14.7609V6C8.25 5.66179 8.47637 5.36542 8.80266 5.27643L19.8027 2.27643C20.0282 2.21492 20.2695 2.26208 20.4552 2.40397ZM8.25 17.5C8.25 16.5335 7.4665 15.75 6.5 15.75C5.5335 15.75 4.75 16.5335 4.75 17.5C4.75 18.4665 5.5335 19.25 6.5 19.25C7.4665 19.25 8.25 18.4665 8.25 17.5ZM19.25 16.5C19.25 15.5335 18.4665 14.75 17.5 14.75C16.5335 14.75 15.75 15.5335 15.75 16.5C15.75 17.4665 16.5335 18.25 17.5 18.25C18.4665 18.25 19.25 17.4665 19.25 16.5Z" fill="#001A72"/>
</svg>
