<svg width="24" height="24" viewBox="0 0 24 24" fill="none" xmlns="http://www.w3.org/2000/svg">
<path d="M3.76461 15.7639L2.10863 14.1079C1.47304 13.4775 1.51362 12.3797 2.21038 11.7982C7.7222 6.27776 16.3175 6.31749 21.7923 11.8009C22.4856 12.3791 22.5266 13.4721 21.895 14.1049L20.2357 15.7642C19.97 16.0352 19.6149 16.2006 19.2367 16.2294C18.1615 16.3114 16.1037 14.9979 15.5768 14.1847C15.1654 13.5497 15.3268 12.6563 15.3275 11.9399C13.1582 11.3453 10.8675 11.3476 8.69702 11.9465C8.69631 12.6629 8.8559 13.5559 8.44327 14.1917C7.91395 15.0073 5.84479 16.3311 4.76752 16.2431C4.38552 16.2119 4.02858 16.0413 3.76461 15.7639Z" stroke="#d44b42" stroke-width="1.5" stroke-linecap="round" stroke-linejoin="round"/>
</svg>
