<svg width="24" height="24" viewBox="0 0 24 24" fill="none" xmlns="http://www.w3.org/2000/svg">
<path d="M3 8C5.3275 5.91142 7.4829 3.54676 10.7454 3.08779C12.6777 2.81593 14.6461 3.17941 16.3539 4.12343C18.0617 5.06746 19.4165 6.54091 20.214 8.32177C21.0115 10.1026 21.2086 12.0944 20.7756 13.997C20.3426 15.8996 19.303 17.61 17.8133 18.8704C16.3237 20.1308 14.4647 20.873 12.5165 20.9851C10.5684 21.0972 8.6365 20.5732 7.0121 19.492C5.3876 18.4108 4.1586 16.831 3.5102 14.9907" stroke="#001A72" stroke-width="1.5" stroke-linecap="round" stroke-linejoin="round"/>
<path d="M3 2V8H9" stroke="#001A72" stroke-width="1.5" stroke-linecap="round" stroke-linejoin="round"/>
<path d="M12 9V13L14 15" stroke="#001A72" stroke-width="1.5" stroke-linecap="round" stroke-linejoin="round"/>
</svg>
