<svg width="24" height="24" viewBox="0 0 24 24" fill="none" xmlns="http://www.w3.org/2000/svg">
<path d="M21 3L15 9M15 3L21 9M20.9995 16.4767V19.1864C21.0037 20.2223 20.0723 21.0873 19.0265 20.9929C10.0001 21 3.00006 13.935 3.00713 4.96919C2.91294 3.92895 3.77364 3.00106 4.80817 3.00009H7.52331C7.96253 2.99577 8.38835 3.151 8.72138 3.43684C9.66819 4.24949 10.2772 7.00777 10.0429 8.10428C9.85994 8.96036 8.99696 9.55929 8.41026 10.1448C9.69864 12.4062 11.5747 14.2785 13.8405 15.5644C14.4272 14.9788 15.0274 14.1176 15.8851 13.935C16.9855 13.7008 19.7615 14.3106 20.5709 15.264C20.858 15.6021 21.0105 16.0337 20.9995 16.4767Z" stroke="#001A72" stroke-width="1.5" stroke-linecap="round" stroke-linejoin="round"/>
</svg>
