<svg width="24" height="24" viewBox="0 0 24 24" fill="none" xmlns="http://www.w3.org/2000/svg">
<path fill-rule="evenodd" clip-rule="evenodd" d="M2.84211 5.75C2.79559 5.75 2.7638 5.76744 2.75085 5.77921C2.75055 5.77948 2.75027 5.77974 2.75 5.77999V11.8671C2.75027 11.8673 2.75055 11.8676 2.75085 11.8679C2.7638 11.8796 2.79559 11.8971 2.84211 11.8971H9.25V5.77999C9.24973 5.77974 9.24945 5.77948 9.24915 5.77921C9.2362 5.76744 9.20441 5.75 9.15789 5.75H2.84211ZM10.75 5.76471C10.75 5.33837 10.5629 4.94598 10.2576 4.66875C9.95466 4.39369 9.55806 4.25 9.15789 4.25H2.84211C2.44194 4.25 2.04534 4.39369 1.74245 4.66875C1.43715 4.94598 1.25 5.33837 1.25 5.76471V11.8824C1.25 12.3087 1.43715 12.7011 1.74245 12.9783C2.04534 13.2534 2.44194 13.3971 2.84211 13.3971H9.25V14.1765C9.25 14.967 8.90482 15.7417 8.26257 16.3249C7.61791 16.9103 6.72935 17.25 5.78947 17.25C5.37526 17.25 5.03947 17.5858 5.03947 18C5.03947 18.4142 5.37526 18.75 5.78947 18.75C7.083 18.75 8.33637 18.284 9.27097 17.4353C10.208 16.5845 10.75 15.4141 10.75 14.1765V5.76471Z" fill="#001A72"/>
<path fill-rule="evenodd" clip-rule="evenodd" d="M14.7527 5.75008C14.7526 5.75011 14.7527 5.75005 14.7527 5.75008C14.7511 5.75393 14.75 5.75893 14.75 5.76471V11.8824C14.75 11.8881 14.7511 11.8931 14.7527 11.897C14.7526 11.897 14.7527 11.897 14.7527 11.897L20.25 11.8971V5.76471C20.25 5.75893 20.2489 5.75393 20.2473 5.75008C20.2473 5.75005 20.2474 5.75011 20.2473 5.75008H14.7527ZM21.75 5.76471C21.75 5.37178 21.5999 4.9896 21.3243 4.70358C21.0478 4.41661 20.6667 4.25 20.2632 4.25H14.7368C14.3333 4.25 13.9522 4.41661 13.6757 4.70358C13.4001 4.9896 13.25 5.37178 13.25 5.76471V11.8824C13.25 12.2753 13.4001 12.6575 13.6757 12.9435C13.9522 13.2304 14.3333 13.3971 14.7368 13.3971H20.25V14.1765C20.25 15.0004 19.9344 15.7853 19.3808 16.3597C18.8282 16.9332 18.0848 17.25 17.3158 17.25C16.9016 17.25 16.5658 17.5858 16.5658 18C16.5658 18.4142 16.9016 18.75 17.3158 18.75C18.501 18.75 19.6318 18.2611 20.461 17.4005C21.2893 16.5409 21.75 15.3806 21.75 14.1765V5.76471Z" fill="#001A72"/>
</svg>
