<svg width="24" height="24" viewBox="0 0 24 24" fill="none" xmlns="http://www.w3.org/2000/svg">
<path fill-rule="evenodd" clip-rule="evenodd" d="M12.3539 5.33875C12.5978 5.46926 12.75 5.7234 12.75 6V8.87536L18.6141 5.35688C18.8458 5.21786 19.1344 5.21422 19.3695 5.34735C19.6047 5.48048 19.75 5.7298 19.75 6V18C19.75 18.2702 19.6047 18.5195 19.3695 18.6527C19.1344 18.7858 18.8458 18.7821 18.6141 18.6431L12.75 15.1246V18C12.75 18.2766 12.5978 18.5307 12.3539 18.6613C12.11 18.7918 11.8141 18.7775 11.584 18.624L2.58397 12.624C2.37533 12.4849 2.25 12.2508 2.25 12C2.25 11.7492 2.37533 11.5151 2.58397 11.376L11.584 5.37596C11.8141 5.22254 12.11 5.20823 12.3539 5.33875ZM11.25 13.7863C11.2498 13.795 11.2498 13.8036 11.25 13.8123V16.5986L4.35208 12L11.25 7.40139V10.1877C11.2498 10.1964 11.2498 10.205 11.25 10.2137L11.25 13.7863ZM12.75 13.3754L18.25 16.6754V7.32464L12.75 10.6246L12.75 13.3754Z" fill="#001A72"/>
</svg>
