<svg width="24" height="24" viewBox="0 0 24 24" fill="none" xmlns="http://www.w3.org/2000/svg">
<path fill-rule="evenodd" clip-rule="evenodd" d="M12 3.75C7.44365 3.75 3.75 7.44365 3.75 12C3.75 16.5563 7.44365 20.25 12 20.25C16.5563 20.25 20.25 16.5563 20.25 12C20.25 7.44365 16.5563 3.75 12 3.75ZM2.25 12C2.25 6.61522 6.61522 2.25 12 2.25C17.3848 2.25 21.75 6.61522 21.75 12C21.75 17.3848 17.3848 21.75 12 21.75C6.61522 21.75 2.25 17.3848 2.25 12Z" fill="#001A72"/>
<path d="M16 9C16 9.55228 15.5523 10 15 10C14.4477 10 14 9.55228 14 9C14 8.44772 14.4477 8 15 8C15.5523 8 16 8.44772 16 9Z" fill="#001A72"/>
<path d="M10 9C10 9.55228 9.55228 10 9 10C8.44772 10 8 9.55228 8 9C8 8.44772 8.44772 8 9 8C9.55228 8 10 8.44772 10 9Z" fill="#001A72"/>
<path fill-rule="evenodd" clip-rule="evenodd" d="M8.59968 16.4504C8.59924 16.451 8.59881 16.4516 8.59837 16.4522C8.59825 16.4523 8.59817 16.4524 8.59815 16.4525L8.59825 16.4523L8.59859 16.4519C8.59851 16.452 8.59843 16.4521 8.59837 16.4522C8.34942 16.7817 7.88066 16.848 7.55001 16.6C7.21864 16.3515 7.15149 15.8814 7.40001 15.55L8.00001 16C7.40001 15.55 7.4002 15.5498 7.40038 15.5495L7.40079 15.549L7.40171 15.5478L7.40397 15.5448L7.41019 15.5366L7.42944 15.512C7.44527 15.492 7.46712 15.465 7.49487 15.4319C7.55033 15.3658 7.62966 15.2753 7.73196 15.1686C7.93594 14.9557 8.23478 14.6746 8.62138 14.3934C9.39171 13.8332 10.5434 13.25 12 13.25C13.4567 13.25 14.6083 13.8332 15.3786 14.3934C15.7653 14.6746 16.0641 14.9557 16.2681 15.1686C16.3704 15.2753 16.4497 15.3658 16.5052 15.4319C16.5329 15.465 16.5548 15.492 16.5706 15.512L16.5898 15.5366L16.5961 15.5448L16.5983 15.5478L16.5992 15.549L16.5996 15.5495C16.5998 15.5498 16.6 15.55 16 16L16.6 15.55C16.8485 15.8814 16.7814 16.3515 16.45 16.6C16.1194 16.8479 15.6508 16.7817 15.4018 16.4523M15.4014 16.4519L15.3945 16.4431C15.3872 16.4338 15.3743 16.4178 15.3562 16.3962C15.3199 16.3529 15.2625 16.2872 15.1851 16.2064C15.0297 16.0443 14.7973 15.8254 14.4964 15.6066C13.8917 15.1668 13.0434 14.75 12 14.75C10.9567 14.75 10.1083 15.1668 9.50364 15.6066C9.20275 15.8254 8.97034 16.0443 8.81494 16.2064C8.73755 16.2872 8.68017 16.3529 8.64383 16.3962C8.62569 16.4178 8.61287 16.4338 8.6055 16.4431L8.59859 16.4519L8.59887 16.4515L8.59938 16.4508L8.59968 16.4504M15.4014 16.4519L15.4012 16.4515L15.4007 16.4508L15.4005 16.4507C15.4005 16.4506 15.4004 16.4505 15.4003 16.4504C15.4002 16.4502 15.4038 16.4472 15.9774 16.017L15.4 16.45C15.4001 16.4501 15.4002 16.4503 15.4003 16.4504C15.4003 16.4504 15.4003 16.4504 15.4003 16.4504L15.4005 16.4507C15.4008 16.4511 15.4011 16.4515 15.4014 16.4519Z" fill="#001A72"/>
</svg>
