<svg width="24" height="24" viewBox="0 0 24 24" fill="none" xmlns="http://www.w3.org/2000/svg">
<path fill-rule="evenodd" clip-rule="evenodd" d="M2.46967 2.00884C2.76256 1.71594 3.23744 1.71594 3.53033 2.00884L21.5303 20.0088C21.8232 20.3017 21.8232 20.7766 21.5303 21.0695C21.2374 21.3624 20.7626 21.3624 20.4697 21.0695L2.46967 3.0695C2.17678 2.7766 2.17678 2.30173 2.46967 2.00884ZM9.25 4.53917C9.25 4.12495 9.58579 3.78917 10 3.78917H19C19.9665 3.78917 20.75 4.57267 20.75 5.53917V14.5392C20.75 14.9534 20.4142 15.2892 20 15.2892C19.5858 15.2892 19.25 14.9534 19.25 14.5392V5.53917C19.25 5.40109 19.1381 5.28917 19 5.28917H10C9.58579 5.28917 9.25 4.95338 9.25 4.53917ZM4 7.78917C4.41421 7.78917 4.75 8.12495 4.75 8.53917V14.5392C4.75 14.6772 4.86193 14.7892 5 14.7892H12C12.4142 14.7892 12.75 15.125 12.75 15.5392V18.7892H16C16.4142 18.7892 16.75 19.125 16.75 19.5392C16.75 19.9534 16.4142 20.2892 16 20.2892H8C7.58579 20.2892 7.25 19.9534 7.25 19.5392C7.25 19.125 7.58579 18.7892 8 18.7892H11.25V16.2892H5C4.0335 16.2892 3.25 15.5057 3.25 14.5392V8.53917C3.25 8.12495 3.58579 7.78917 4 7.78917Z" fill="#001A72"/>
</svg>
