<svg width="24" height="24" viewBox="0 0 24 24" fill="none" xmlns="http://www.w3.org/2000/svg">
<path fill-rule="evenodd" clip-rule="evenodd" d="M3.25 5.5C3.25 4.5335 4.0335 3.75 5 3.75H19C19.9665 3.75 20.75 4.5335 20.75 5.5V14.5C20.75 15.4665 19.9665 16.25 19 16.25H12.75V18.75H16C16.4142 18.75 16.75 19.0858 16.75 19.5C16.75 19.9142 16.4142 20.25 16 20.25H8C7.58579 20.25 7.25 19.9142 7.25 19.5C7.25 19.0858 7.58579 18.75 8 18.75H11.25V16.25H5C4.0335 16.25 3.25 15.4665 3.25 14.5V5.5ZM5 5.25C4.86193 5.25 4.75 5.36193 4.75 5.5V14.5C4.75 14.6381 4.86193 14.75 5 14.75H19C19.1381 14.75 19.25 14.6381 19.25 14.5V5.5C19.25 5.36193 19.1381 5.25 19 5.25H5Z" fill="#001A72"/>
</svg>
