<svg width="24" height="24" viewBox="0 0 24 24" fill="none" xmlns="http://www.w3.org/2000/svg">
<path fill-rule="evenodd" clip-rule="evenodd" d="M4.26892 14.0113V18.4052H18.9772V14.0113H4.26892ZM2.76892 13.9981C2.76892 13.177 3.43456 12.5113 4.25566 12.5113H18.9905C19.8116 12.5113 20.4772 13.177 20.4772 13.9981V18.4185C20.4772 19.2396 19.8116 19.9052 18.9905 19.9052H4.25566C3.43456 19.9052 2.76892 19.2396 2.76892 18.4185V13.9981Z" fill="#001A72"/>
<path fill-rule="evenodd" clip-rule="evenodd" d="M4.26892 5.17044V9.56436H18.9772V5.17044H4.26892ZM2.76892 5.15718C2.76892 4.33608 3.43456 3.67044 4.25566 3.67044H18.9905C19.8116 3.67044 20.4772 4.33608 20.4772 5.15718V9.57762C20.4772 10.3987 19.8116 11.0644 18.9905 11.0644H4.25566C3.43456 11.0644 2.76892 10.3987 2.76892 9.57762V5.15718Z" fill="#001A72"/>
<path d="M16.4119 8.47251C17.0222 8.47251 17.517 7.97774 17.517 7.3674C17.517 6.75707 17.0222 6.26229 16.4119 6.26229C15.8015 6.26229 15.3068 6.75707 15.3068 7.3674C15.3068 7.97774 15.8015 8.47251 16.4119 8.47251Z" fill="#001A72"/>
<path d="M16.4119 17.3134C17.0222 17.3134 17.517 16.8186 17.517 16.2083C17.517 15.5979 17.0222 15.1032 16.4119 15.1032C15.8015 15.1032 15.3068 15.5979 15.3068 16.2083C15.3068 16.8186 15.8015 17.3134 16.4119 17.3134Z" fill="#001A72"/>
</svg>
