<svg width="24" height="24" viewBox="0 0 24 24" fill="none" xmlns="http://www.w3.org/2000/svg">
<path fill-rule="evenodd" clip-rule="evenodd" d="M9.25 4C9.25 3.0335 10.0335 2.25 11 2.25H13C13.9665 2.25 14.75 3.0335 14.75 4V4.56879C14.75 4.64758 14.8097 4.77314 14.9698 4.83961C15.124 4.90361 15.2506 4.8603 15.31 4.8009L15.7123 4.39858C16.3957 3.71516 17.5037 3.71516 18.1871 4.39858L19.6014 5.81279C20.2848 6.49621 20.2848 7.60425 19.6014 8.28767L19.1991 8.68993L18.6688 8.1596L19.1991 8.68993C19.1397 8.74934 19.0964 8.87597 19.1604 9.03016C19.2269 9.19028 19.3524 9.25 19.4313 9.25L20 9.25C20.9665 9.25 21.75 10.0335 21.75 11V13C21.75 13.9665 20.9665 14.75 20 14.75H19.4312C19.3524 14.75 19.2269 14.8097 19.1604 14.9698C19.0964 15.124 19.1397 15.2506 19.1991 15.31L19.6014 15.7123C20.2848 16.3957 20.2848 17.5037 19.6014 18.1872L18.1872 19.6014C17.5037 20.2848 16.3957 20.2848 15.7123 19.6014L15.31 19.1991C15.2506 19.1397 15.124 19.0964 14.9698 19.1604C14.8097 19.2269 14.75 19.3524 14.75 19.4312V20C14.75 20.9665 13.9665 21.75 13 21.75H11C10.0335 21.75 9.25 20.9665 9.25 20V19.4313C9.25 19.3524 9.19028 19.2269 9.03016 19.1604C8.87597 19.0964 8.74934 19.1397 8.68993 19.1991L8.28765 19.6014C7.60423 20.2848 6.49619 20.2848 5.81278 19.6014L4.39856 18.1872C3.71514 17.5037 3.71514 16.3957 4.39856 15.7123L4.8009 15.31L5.33123 15.8403L4.8009 15.31C4.8603 15.2506 4.90361 15.124 4.83961 14.9698C4.77314 14.8097 4.64758 14.75 4.56879 14.75H4C3.0335 14.75 2.25 13.9665 2.25 13V11C2.25 10.0335 3.0335 9.25 4 9.25L4.56877 9.25C4.64757 9.25 4.77315 9.19029 4.83962 9.03018C4.90363 8.87601 4.86031 8.7494 4.8009 8.68999L4.39858 8.28767C3.71516 7.60425 3.71516 6.49621 4.39858 5.81279L5.81279 4.39858C6.49621 3.71516 7.60425 3.71516 8.28767 4.39858L8.68999 4.8009C8.74939 4.86031 8.87601 4.90363 9.03018 4.83962C9.19029 4.77315 9.25 4.64757 9.25 4.56876V4ZM11 3.75C10.8619 3.75 10.75 3.86193 10.75 4V4.56876C10.75 5.34558 10.2355 5.96335 9.60535 6.22497C8.96899 6.48917 8.17517 6.4074 7.62933 5.86156L7.22701 5.45924C7.12937 5.36161 6.97108 5.36161 6.87345 5.45924L5.45924 6.87346C5.36161 6.97109 5.36161 7.12938 5.45924 7.22701L5.86156 7.62933C6.4074 8.17517 6.48917 8.969 6.22497 9.60535C5.96335 10.2355 5.34558 10.75 4.56877 10.75H4C3.86193 10.75 3.75 10.8619 3.75 11V13C3.75 13.1381 3.86193 13.25 4 13.25H4.56879C5.34559 13.25 5.96335 13.7645 6.22496 14.3946C6.48915 15.031 6.40739 15.8248 5.86156 16.3706L5.35244 15.8615L5.86156 16.3706L5.45922 16.7729C5.36159 16.8706 5.36159 17.0289 5.45922 17.1265L6.87344 18.5407C6.97107 18.6383 7.12936 18.6383 7.22699 18.5407L7.62927 18.1384C8.17512 17.5926 8.96896 17.5108 9.60533 17.775C10.2355 18.0366 10.75 18.6544 10.75 19.4313V20C10.75 20.1381 10.8619 20.25 11 20.25H13C13.1381 20.25 13.25 20.1381 13.25 20V19.4312C13.25 18.6544 13.7645 18.0366 14.3947 17.775C15.031 17.5108 15.8248 17.5926 16.3707 18.1384L16.7729 18.5407C16.8706 18.6383 17.0289 18.6383 17.1265 18.5407L18.5407 17.1265C18.6383 17.0289 18.6383 16.8706 18.5407 16.773L18.1384 16.3707C17.5926 15.8248 17.5108 15.031 17.775 14.3947C18.0366 13.7645 18.6544 13.25 19.4312 13.25H20C20.1381 13.25 20.25 13.1381 20.25 13V11C20.25 10.8619 20.1381 10.75 20 10.75L19.4313 10.75C18.6544 10.75 18.0366 10.2355 17.775 9.60533C17.5108 8.96897 17.5926 8.17512 18.1384 7.62927L18.5407 7.22701C18.6383 7.12937 18.6383 6.97108 18.5407 6.87345L17.1265 5.45924L17.6568 4.92891L17.1265 5.45924C17.0289 5.36161 16.8706 5.36161 16.7729 5.45924L16.2426 4.92891L16.7729 5.45924L16.3706 5.86156C15.8248 6.40739 15.031 6.48915 14.3946 6.22496C13.7645 5.96335 13.25 5.34559 13.25 4.56879V4C13.25 3.86193 13.1381 3.75 13 3.75H11ZM12 10.75C11.3096 10.75 10.75 11.3096 10.75 12C10.75 12.6904 11.3096 13.25 12 13.25C12.6904 13.25 13.25 12.6904 13.25 12C13.25 11.3096 12.6904 10.75 12 10.75ZM9.25 12C9.25 10.4812 10.4812 9.25 12 9.25C13.5188 9.25 14.75 10.4812 14.75 12C14.75 13.5188 13.5188 14.75 12 14.75C10.4812 14.75 9.25 13.5188 9.25 12Z" fill="#001A72"/>
</svg>
