<svg width="24" height="24" viewBox="0 0 24 24" fill="none" xmlns="http://www.w3.org/2000/svg">
<path d="M16.2426 4.92891L16.7729 5.45924L16.7729 5.45924L16.2426 4.92891ZM15.8403 5.33123L16.3706 5.86156L15.8403 5.33123ZM19.071 6.34312L19.6014 5.81279V5.81279L19.071 6.34312ZM17.6568 4.92891L17.1265 5.45924L17.1265 5.45924L17.6568 4.92891ZM18.6688 8.1596L19.1991 8.68993L19.1991 8.68993L18.6688 8.1596ZM19.071 7.75734L18.5407 7.22701V7.22701L19.071 7.75734ZM20 10V9.25V10ZM19.4313 10V10.75V10ZM19.071 16.2426L19.6014 15.7123L19.6014 15.7123L19.071 16.2426ZM18.6688 15.8403L18.1384 16.3707V16.3707L18.6688 15.8403ZM17.6568 19.071L17.1265 18.5407V18.5407L17.6568 19.071ZM19.071 17.6568L19.6014 18.1872V18.1872L19.071 17.6568ZM15.8403 18.6688L16.3707 18.1384H16.3707L15.8403 18.6688ZM16.2426 19.071L15.7123 19.6014L15.7123 19.6014L16.2426 19.071ZM7.75732 19.071L8.28765 19.6014H8.28765L7.75732 19.071ZM8.1596 18.6688L8.68993 19.1991L8.68993 19.1991L8.1596 18.6688ZM4.92889 17.6568L5.45922 17.1265V17.1265L4.92889 17.6568ZM6.34311 19.071L5.81278 19.6014H5.81278L6.34311 19.071ZM5.33123 15.8403L5.86156 16.3706L5.86156 16.3706L5.33123 15.8403ZM4.92889 16.2426L5.45922 16.7729L4.92889 16.2426ZM4.56877 10V9.25H4.56877L4.56877 10ZM4 10V10.75H4L4 10ZM4.92891 7.75734L4.39858 8.28767H4.39858L4.92891 7.75734ZM5.33123 8.15966L5.86156 7.62933H5.86156L5.33123 8.15966ZM6.34312 4.92891L6.87345 5.45924V5.45924L6.34312 4.92891ZM4.92891 6.34313L5.45924 6.87346H5.45924L4.92891 6.34313ZM8.15966 5.33123L7.62933 5.86156V5.86156L8.15966 5.33123ZM7.75734 4.92891L8.28767 4.39858V4.39858L7.75734 4.92891ZM9.31776 5.53229L9.60535 6.22497H9.60535L9.31776 5.53229ZM5.53229 9.31776L6.22497 9.60535L5.53229 9.31776ZM5.53228 14.6822L6.22496 14.3946L5.53228 14.6822ZM9.31774 18.4677L9.60533 17.775H9.60533L9.31774 18.4677ZM14.6822 18.4677L14.3947 17.775L14.6822 18.4677ZM18.4677 14.6822L19.1604 14.9698L18.4677 14.6822ZM18.4677 9.31774L17.775 9.60533V9.60533L18.4677 9.31774ZM14.6822 5.53228L14.3946 6.22496L14.6822 5.53228ZM13 2.25H11V3.75H13V2.25ZM14.75 4.56879V4H13.25V4.56879H14.75ZM15.7123 4.39858L15.31 4.8009L16.3706 5.86156L16.7729 5.45924L15.7123 4.39858ZM19.6014 5.81279L18.1871 4.39858L17.1265 5.45924L18.5407 6.87345L19.6014 5.81279ZM19.1991 8.68993L19.6014 8.28766L18.5407 7.22701L18.1384 7.62927L19.1991 8.68993ZM20 9.25L19.4313 9.25V10.75L20 10.75V9.25ZM21.75 13V11H20.25V13H21.75ZM19.4312 14.75H20V13.25H19.4312V14.75ZM19.6014 15.7123L19.1991 15.31L18.1384 16.3707L18.5407 16.773L19.6014 15.7123ZM18.1872 19.6014L19.6014 18.1872L18.5407 17.1265L17.1265 18.5407L18.1872 19.6014ZM15.31 19.1991L15.7123 19.6014L16.7729 18.5407L16.3707 18.1384L15.31 19.1991ZM14.75 20V19.4312H13.25V20H14.75ZM11 21.75H13V20.25H11V21.75ZM9.25 19.4313V20H10.75V19.4313H9.25ZM8.28765 19.6014L8.68993 19.1991L7.62927 18.1384L7.22699 18.5407L8.28765 19.6014ZM4.39856 18.1872L5.81278 19.6014L6.87344 18.5407L5.45922 17.1265L4.39856 18.1872ZM4.8009 15.3099L4.39856 15.7123L5.45922 16.7729L5.86156 16.3706L4.8009 15.3099ZM4 14.75H4.56879V13.25H4V14.75ZM2.25 11V13H3.75V11H2.25ZM4.56877 9.25L4 9.25L4 10.75L4.56877 10.75L4.56877 9.25ZM4.39858 8.28767L4.8009 8.68999L5.86156 7.62933L5.45924 7.22701L4.39858 8.28767ZM5.81279 4.39858L4.39858 5.81279L5.45924 6.87346L6.87345 5.45924L5.81279 4.39858ZM8.68999 4.8009L8.28767 4.39858L7.22701 5.45924L7.62933 5.86156L8.68999 4.8009ZM9.25 4V4.56876H10.75V4H9.25ZM9.60535 6.22497C10.2355 5.96335 10.75 5.34558 10.75 4.56876H9.25C9.25 4.64757 9.19029 4.77315 9.03018 4.83962L9.60535 6.22497ZM7.62933 5.86156C8.17517 6.4074 8.96899 6.48917 9.60535 6.22497L9.03018 4.83962C8.87601 4.90363 8.74939 4.86031 8.68999 4.8009L7.62933 5.86156ZM6.87345 5.45924C6.97108 5.36161 7.12937 5.36161 7.22701 5.45924L8.28767 4.39858C7.60425 3.71516 6.49621 3.71516 5.81279 4.39858L6.87345 5.45924ZM5.45924 7.22701C5.36161 7.12938 5.36161 6.97109 5.45924 6.87346L4.39858 5.81279C3.71516 6.49621 3.71516 7.60425 4.39858 8.28767L5.45924 7.22701ZM6.22497 9.60535C6.48917 8.969 6.4074 8.17517 5.86156 7.62933L4.8009 8.68999C4.86031 8.7494 4.90363 8.87601 4.83962 9.03018L6.22497 9.60535ZM4.56877 10.75C5.34558 10.75 5.96335 10.2355 6.22497 9.60535L4.83962 9.03018C4.77315 9.19029 4.64757 9.25 4.56877 9.25V10.75ZM3.75 11C3.75 10.8619 3.86193 10.75 4 10.75V9.25C3.0335 9.25 2.25 10.0335 2.25 11H3.75ZM4 13.25C3.86193 13.25 3.75 13.1381 3.75 13H2.25C2.25 13.9665 3.0335 14.75 4 14.75V13.25ZM6.22496 14.3946C5.96335 13.7645 5.34559 13.25 4.56879 13.25V14.75C4.64758 14.75 4.77314 14.8097 4.83961 14.9698L6.22496 14.3946ZM5.86156 16.3706C6.40739 15.8248 6.48915 15.031 6.22496 14.3946L4.83961 14.9698C4.90361 15.124 4.8603 15.2506 4.8009 15.31L5.86156 16.3706ZM5.45922 17.1265C5.36159 17.0289 5.36159 16.8706 5.45922 16.7729L4.39856 15.7123C3.71514 16.3957 3.71514 17.5037 4.39856 18.1872L5.45922 17.1265ZM7.22699 18.5407C7.12936 18.6383 6.97107 18.6383 6.87344 18.5407L5.81278 19.6014C6.49619 20.2848 7.60423 20.2848 8.28765 19.6014L7.22699 18.5407ZM9.60533 17.775C8.96896 17.5108 8.17512 17.5926 7.62927 18.1384L8.68993 19.1991C8.74934 19.1397 8.87597 19.0964 9.03016 19.1604L9.60533 17.775ZM10.75 19.4313C10.75 18.6544 10.2355 18.0366 9.60533 17.775L9.03016 19.1604C9.19028 19.2269 9.25 19.3524 9.25 19.4313H10.75ZM11 20.25C10.8619 20.25 10.75 20.1381 10.75 20H9.25C9.25 20.9665 10.0335 21.75 11 21.75V20.25ZM13.25 20C13.25 20.1381 13.1381 20.25 13 20.25V21.75C13.9665 21.75 14.75 20.9665 14.75 20H13.25ZM14.3947 17.775C13.7645 18.0366 13.25 18.6544 13.25 19.4312H14.75C14.75 19.3524 14.8097 19.2269 14.9698 19.1604L14.3947 17.775ZM16.3707 18.1384C15.8248 17.5926 15.031 17.5108 14.3947 17.775L14.9698 19.1604C15.124 19.0964 15.2506 19.1397 15.31 19.1991L16.3707 18.1384ZM17.1265 18.5407C17.0289 18.6383 16.8706 18.6383 16.7729 18.5407L15.7123 19.6014C16.3957 20.2848 17.5037 20.2848 18.1872 19.6014L17.1265 18.5407ZM18.5407 16.773C18.6383 16.8706 18.6383 17.0289 18.5407 17.1265L19.6014 18.1872C20.2848 17.5037 20.2848 16.3957 19.6014 15.7123L18.5407 16.773ZM17.775 14.3947C17.5108 15.031 17.5926 15.8248 18.1384 16.3707L19.1991 15.31C19.1397 15.2506 19.0964 15.124 19.1604 14.9698L17.775 14.3947ZM19.4312 13.25C18.6544 13.25 18.0366 13.7645 17.775 14.3947L19.1604 14.9698C19.2269 14.8097 19.3524 14.75 19.4312 14.75V13.25ZM20.25 13C20.25 13.1381 20.1381 13.25 20 13.25V14.75C20.9665 14.75 21.75 13.9665 21.75 13H20.25ZM20 10.75C20.1381 10.75 20.25 10.8619 20.25 11H21.75C21.75 10.0335 20.9665 9.25 20 9.25V10.75ZM17.775 9.60533C18.0366 10.2355 18.6544 10.75 19.4313 10.75V9.25C19.3524 9.25 19.2269 9.19028 19.1604 9.03016L17.775 9.60533ZM18.1384 7.62927C17.5926 8.17512 17.5108 8.96897 17.775 9.60533L19.1604 9.03016C19.0964 8.87597 19.1397 8.74934 19.1991 8.68993L18.1384 7.62927ZM18.5407 6.87345C18.6383 6.97108 18.6383 7.12937 18.5407 7.22701L19.6014 8.28767C20.2848 7.60425 20.2848 6.49621 19.6014 5.81279L18.5407 6.87345ZM16.7729 5.45924C16.8706 5.36161 17.0289 5.36161 17.1265 5.45924L18.1871 4.39858C17.5037 3.71516 16.3957 3.71516 15.7123 4.39858L16.7729 5.45924ZM14.3946 6.22496C15.031 6.48915 15.8248 6.40739 16.3706 5.86156L15.31 4.8009C15.2506 4.8603 15.124 4.90361 14.9698 4.83961L14.3946 6.22496ZM13.25 4.56879C13.25 5.34559 13.7645 5.96335 14.3946 6.22496L14.9698 4.83961C14.8097 4.77314 14.75 4.64758 14.75 4.56879H13.25ZM11 2.25C10.0335 2.25 9.25 3.0335 9.25 4H10.75C10.75 3.86193 10.8619 3.75 11 3.75V2.25ZM13 3.75C13.1381 3.75 13.25 3.86193 13.25 4H14.75C14.75 3.0335 13.9665 2.25 13 2.25V3.75ZM13.25 12C13.25 12.6904 12.6904 13.25 12 13.25V14.75C13.5188 14.75 14.75 13.5188 14.75 12H13.25ZM12 13.25C11.3096 13.25 10.75 12.6904 10.75 12H9.25C9.25 13.5188 10.4812 14.75 12 14.75V13.25ZM10.75 12C10.75 11.3096 11.3096 10.75 12 10.75V9.25C10.4812 9.25 9.25 10.4812 9.25 12H10.75ZM12 10.75C12.6904 10.75 13.25 11.3096 13.25 12H14.75C14.75 10.4812 13.5188 9.25 12 9.25V10.75Z" fill="#001A72"/>
</svg>
