<svg width="24" height="24" viewBox="0 0 24 24" fill="none" xmlns="http://www.w3.org/2000/svg">
<path fill-rule="evenodd" clip-rule="evenodd" d="M15 3.25C15.4142 3.25 15.75 3.58579 15.75 4V20C15.75 20.4142 15.4142 20.75 15 20.75C14.5858 20.75 14.25 20.4142 14.25 20V4C14.25 3.58579 14.5858 3.25 15 3.25ZM12 6.25C12.4142 6.25 12.75 6.58579 12.75 7V17C12.75 17.4142 12.4142 17.75 12 17.75C11.5858 17.75 11.25 17.4142 11.25 17V7C11.25 6.58579 11.5858 6.25 12 6.25ZM6 7.25C6.41421 7.25 6.75 7.58579 6.75 8V16C6.75 16.4142 6.41421 16.75 6 16.75C5.58579 16.75 5.25 16.4142 5.25 16V8C5.25 7.58579 5.58579 7.25 6 7.25ZM18 8.25C18.4142 8.25 18.75 8.58579 18.75 9V15C18.75 15.4142 18.4142 15.75 18 15.75C17.5858 15.75 17.25 15.4142 17.25 15V9C17.25 8.58579 17.5858 8.25 18 8.25ZM9 9.25C9.41421 9.25 9.75 9.58579 9.75 10V14C9.75 14.4142 9.41421 14.75 9 14.75C8.58579 14.75 8.25 14.4142 8.25 14V10C8.25 9.58579 8.58579 9.25 9 9.25ZM3 10.25C3.41421 10.25 3.75 10.5858 3.75 11V13C3.75 13.4142 3.41421 13.75 3 13.75C2.58579 13.75 2.25 13.4142 2.25 13V11C2.25 10.5858 2.58579 10.25 3 10.25ZM21 10.25C21.4142 10.25 21.75 10.5858 21.75 11V13C21.75 13.4142 21.4142 13.75 21 13.75C20.5858 13.75 20.25 13.4142 20.25 13V11C20.25 10.5858 20.5858 10.25 21 10.25Z" fill="#001A72"/>
</svg>
