<svg width="24" height="24" viewBox="0 0 24 24" fill="none" xmlns="http://www.w3.org/2000/svg">
<path fill-rule="evenodd" clip-rule="evenodd" d="M13.3181 2.32081C13.5817 2.44424 13.75 2.70899 13.75 3V21C13.75 21.291 13.5817 21.5558 13.3181 21.6792C13.0546 21.8026 12.7434 21.7625 12.5199 21.5762L6.72846 16.75H5C3.48122 16.75 2.25 15.5188 2.25 14V10C2.25 8.48122 3.48122 7.25 5 7.25H6.72846L12.5199 2.42384C12.7434 2.23753 13.0546 2.19737 13.3181 2.32081ZM12.25 4.60128L7.48014 8.57617C7.34535 8.68849 7.17545 8.75 7 8.75H5C4.30964 8.75 3.75 9.30965 3.75 10V14C3.75 14.6904 4.30964 15.25 5 15.25H7C7.17545 15.25 7.34535 15.3115 7.48014 15.4238L12.25 19.3987V4.60128ZM18.4697 5.46967C18.7626 5.17678 19.2374 5.17678 19.5303 5.46967C21.242 7.1813 21.75 9.93115 21.75 12C21.75 14.0688 21.242 16.8187 19.5303 18.5303C19.2374 18.8232 18.7626 18.8232 18.4697 18.5303C18.1768 18.2374 18.1768 17.7626 18.4697 17.4697C19.758 16.1813 20.25 13.9311 20.25 12C20.25 10.0689 19.758 7.81871 18.4697 6.53033C18.1768 6.23744 18.1768 5.76256 18.4697 5.46967ZM15.4697 8.46967C15.7626 8.17678 16.2374 8.17678 16.5303 8.46967C17.1959 9.13522 17.75 10.3393 17.75 12C17.75 13.6607 17.1959 14.8648 16.5303 15.5303C16.2374 15.8232 15.7626 15.8232 15.4697 15.5303C15.1768 15.2374 15.1768 14.7626 15.4697 14.4697C15.8041 14.1352 16.25 13.3393 16.25 12C16.25 10.6607 15.8041 9.86478 15.4697 9.53033C15.1768 9.23744 15.1768 8.76256 15.4697 8.46967Z" fill="#001A72"/>
</svg>
