<svg width="24" height="24" viewBox="0 0 24 24" fill="none" xmlns="http://www.w3.org/2000/svg">
<path d="M12.1807 17.1226L16.4489 19.8326C16.9994 20.1798 17.6769 19.6632 17.516 19.028L16.2795 14.167C16.2461 14.0323 16.2514 13.8908 16.2949 13.759C16.3383 13.6271 16.4181 13.5102 16.5251 13.4218L20.353 10.2291C20.8526 9.81412 20.5985 8.97572 19.9465 8.93338L14.9499 8.61157C14.8136 8.60364 14.6825 8.55617 14.5728 8.47495C14.463 8.39374 14.3792 8.2823 14.3317 8.15426L12.4686 3.46262C12.4193 3.32704 12.3295 3.20992 12.2113 3.12716C12.0931 3.04439 11.9523 3 11.8081 3C11.6638 3 11.523 3.04439 11.4048 3.12716C11.2867 3.20992 11.1968 3.32704 11.1475 3.46262L9.28441 8.15426C9.23692 8.2823 9.15317 8.39374 9.04338 8.47495C8.93359 8.55617 8.80253 8.60364 8.6662 8.61157L3.66968 8.93338C3.0176 8.97572 2.76354 9.81412 3.26319 10.2291L7.09102 13.4218C7.19801 13.5102 7.27783 13.6271 7.32128 13.759C7.36473 13.8908 7.37005 14.0323 7.33662 14.167L6.19335 18.6723C5.99857 19.4345 6.81156 20.0527 7.46365 19.6378L11.4354 17.1226C11.5468 17.0518 11.6761 17.0141 11.8081 17.0141C11.9401 17.0141 12.0693 17.0518 12.1807 17.1226V17.1226Z" stroke="#001A72" stroke-width="1.5" stroke-linecap="round" stroke-linejoin="round"/>
</svg>
