<svg width="24" height="24" viewBox="0 0 24 24" fill="none" xmlns="http://www.w3.org/2000/svg">
<path fill-rule="evenodd" clip-rule="evenodd" d="M12 2.25C12.4142 2.25 12.75 2.58579 12.75 3V5C12.75 5.41421 12.4142 5.75 12 5.75C11.5858 5.75 11.25 5.41421 11.25 5V3C11.25 2.58579 11.5858 2.25 12 2.25ZM4.46967 4.46967C4.76256 4.17678 5.23744 4.17678 5.53033 4.46967L7.53033 6.46967C7.82322 6.76256 7.82322 7.23744 7.53033 7.53033C7.23744 7.82322 6.76256 7.82322 6.46967 7.53033L4.46967 5.53033C4.17678 5.23744 4.17678 4.76256 4.46967 4.46967ZM18.4696 4.46967C18.7625 4.17678 19.2374 4.17678 19.5303 4.46967C19.8232 4.76256 19.8232 5.23744 19.5303 5.53033L17.5303 7.53033C17.2374 7.82322 16.7625 7.82322 16.4696 7.53033C16.1767 7.23744 16.1767 6.76256 16.4696 6.46967L18.4696 4.46967ZM12 9.75C10.7574 9.75 9.75 10.7574 9.75 12C9.75 13.2426 10.7574 14.25 12 14.25C13.2426 14.25 14.25 13.2426 14.25 12C14.25 10.7574 13.2426 9.75 12 9.75ZM8.25 12C8.25 9.92893 9.92893 8.25 12 8.25C14.0711 8.25 15.75 9.92893 15.75 12C15.75 14.0711 14.0711 15.75 12 15.75C9.92893 15.75 8.25 14.0711 8.25 12ZM2.25 12C2.25 11.5858 2.58579 11.25 3 11.25H5C5.41421 11.25 5.75 11.5858 5.75 12C5.75 12.4142 5.41421 12.75 5 12.75H3C2.58579 12.75 2.25 12.4142 2.25 12ZM18.25 12C18.25 11.5858 18.5858 11.25 19 11.25H21C21.4142 11.25 21.75 11.5858 21.75 12C21.75 12.4142 21.4142 12.75 21 12.75H19C18.5858 12.75 18.25 12.4142 18.25 12ZM7.53039 16.4697C7.82328 16.7626 7.82328 17.2374 7.53039 17.5303L5.53039 19.5303C5.2375 19.8232 4.76262 19.8232 4.46973 19.5303C4.17684 19.2374 4.17684 18.7626 4.46973 18.4697L6.46973 16.4697C6.76262 16.1768 7.2375 16.1768 7.53039 16.4697ZM16.4697 16.4697C16.7626 16.1768 17.2374 16.1768 17.5303 16.4697L19.5303 18.4697C19.8232 18.7626 19.8232 19.2374 19.5303 19.5303C19.2374 19.8232 18.7626 19.8232 18.4697 19.5303L16.4697 17.5303C16.1768 17.2374 16.1768 16.7626 16.4697 16.4697ZM12 18.25C12.4142 18.25 12.75 18.5858 12.75 19V21C12.75 21.4142 12.4142 21.75 12 21.75C11.5858 21.75 11.25 21.4142 11.25 21V19C11.25 18.5858 11.5858 18.25 12 18.25Z" fill="#001A72"/>
</svg>
