<svg width="24" height="24" viewBox="0 0 24 24" fill="none" xmlns="http://www.w3.org/2000/svg">
<path fill-rule="evenodd" clip-rule="evenodd" d="M12 3.75C7.44365 3.75 3.75 7.44365 3.75 12C3.75 16.5563 7.44365 20.25 12 20.25C16.5563 20.25 20.25 16.5563 20.25 12C20.25 7.44365 16.5563 3.75 12 3.75ZM2.25 12C2.25 6.61522 6.61522 2.25 12 2.25C17.3848 2.25 21.75 6.61522 21.75 12C21.75 17.3848 17.3848 21.75 12 21.75C6.61522 21.75 2.25 17.3848 2.25 12ZM17.5303 8.46967C17.8232 8.76256 17.8232 9.23744 17.5303 9.53033L10.5303 16.5303C10.2374 16.8232 9.76255 16.8232 9.46965 16.5304L6.46961 13.5303C6.17672 13.2374 6.17671 12.7626 6.46961 12.4697C6.7625 12.1768 7.23737 12.1768 7.53027 12.4697L9.99998 14.9394L16.4697 8.46967C16.7626 8.17678 17.2374 8.17678 17.5303 8.46967Z" fill="#001A72"/>
</svg>
