<svg width="24" height="24" viewBox="0 0 24 24" fill="none" xmlns="http://www.w3.org/2000/svg">
<path fill-rule="evenodd" clip-rule="evenodd" d="M9.25 4C9.25 3.0335 10.0335 2.25 11 2.25H20C20.9665 2.25 21.75 3.0335 21.75 4V11C21.75 11.9665 20.9665 12.75 20 12.75H17.75V19C17.75 19.9665 16.9665 20.75 16 20.75H4C3.0335 20.75 2.25 19.9665 2.25 19V10C2.25 9.0335 3.0335 8.25 4 8.25H9.25V4ZM10.75 6.75V8.25H16C16.9665 8.25 17.75 9.0335 17.75 10V11.25H20C20.1381 11.25 20.25 11.1381 20.25 11V6.75H10.75ZM20.25 5.25H10.75V4C10.75 3.86193 10.8619 3.75 11 3.75H20C20.1381 3.75 20.25 3.86193 20.25 4V5.25ZM16.25 11.25V10C16.25 9.86193 16.1381 9.75 16 9.75H4C3.86193 9.75 3.75 9.86193 3.75 10V11.25H16.25ZM3.75 12.75V19C3.75 19.1381 3.86193 19.25 4 19.25H16C16.1381 19.25 16.25 19.1381 16.25 19V12.75H3.75Z" fill="#001A72"/>
</svg>
